# xmcd
#
# Track frame offsets:
#	150
#	12637
#	28725
#	42519
#	58030
#	67089
#	81912
#	97021
#	107869
#	120541
#	132323
#	146969
#	165399
#	177100
#
# Disc length: 2525 seconds
#
# Revision: 0
# Processed by: cddbd v1.5.1PL0 Copyright (c) Steve Scherf et al.
# Submitted via: dBpowerAMP V4.0
#
DISCID=ce09db0e
DTITLE=Big Country Bluegrass - My Old Virginia Home
DYEAR=1900
DGENRE=Bluegrass
TTITLE0=Carolina Moonshiner
TTITLE1=I'm Longing For My Old Virginia Home
TTITLE2=Mansion On The Hill
TTITLE3=Mama's Crown
TTITLE4=Sweet Little Miss Blue Eyes
TTITLE5=Steal Away And Pray
TTITLE6=Unmerited Grace
TTITLE7=Long Haul Truckin'
TTITLE8=I'll Just Go Away
TTITLE9=Footprints In The Snow
TTITLE10=Lee Highway Blues
TTITLE11=On My Mind
TTITLE12=Crossing The River Of Jordan
TTITLE13=Cry From The Cross
EXTD=
EXTT0=
EXTT1=
EXTT2=
EXTT3=
EXTT4=
EXTT5=
EXTT6=
EXTT7=
EXTT8=
EXTT9=
EXTT10=
EXTT11=
EXTT12=
EXTT13=
PLAYORDER=
